<?xml version="1.0" encoding="UTF-8"?>
<svg version="1.1" xmlns="http://www.w3.org/2000/svg" width="500" height="500">
<path d="M0 0 C0.80211914 -0.02231689 1.60423828 -0.04463379 2.43066406 -0.06762695 C6.14137762 -0.05305196 8.29132387 0.12943032 11.53515625 2.046875 C35.34792049 27.04415067 45.37139529 61.99723284 45.04296875 95.828125 C44.79331763 104.96821824 43.71257816 114.73726552 40.8125 123.4375 C40.1525 123.4375 39.4925 123.4375 38.8125 123.4375 C37.77051999 121.72415677 36.8062434 119.9634654 35.875 118.1875 C18.830118 87.99268807 -17.49027225 66.29600392 -47.24447632 50.52095032 C-49.1875 49.4375 -49.1875 49.4375 -51.10061646 48.17672729 C-57.34390229 44.23509347 -62.50404018 43.70254298 -69.78515625 43.73046875 C-70.86002792 43.71534744 -71.9348996 43.70022614 -73.04234314 43.68464661 C-76.44511216 43.64196822 -79.84699066 43.63295039 -83.25 43.625 C-85.56968481 43.6018404 -87.88934868 43.57647205 -90.20898438 43.54882812 C-95.86849822 43.48617211 -101.52766687 43.45108057 -107.1875 43.4375 C-107.1875 42.7775 -107.1875 42.1175 -107.1875 41.4375 C-104.53152971 39.70817512 -101.88174707 38.11811045 -99.125 36.5625 C-97.84919067 35.8365564 -97.84919067 35.8365564 -96.54760742 35.09594727 C-93.76918931 33.52772485 -90.98092828 31.97881739 -88.1875 30.4375 C-87.27323242 29.93299316 -86.35896484 29.42848633 -85.41699219 28.90869141 C-59.19504205 14.56755078 -30.4247969 0.50513338 0 0 Z " fill="#000000" transform="translate(337.1875,159.5625)"/>
<path d="M0 0 C-1.33452984 3.45794432 -2.84269108 6.80467001 -4.41113281 10.16186523 C-19.00954256 41.95650574 -28.40218219 97.50132806 -17.87646484 131.16015625 C-15.343437 137.30944313 -11.88042853 142.5303797 -7.75390625 147.71972656 C-4.82963446 151.52160553 -2.51537531 155.6632105 -0.125 159.8125 C0.30925293 160.52011475 0.74350586 161.22772949 1.19091797 161.95678711 C2.18943087 163.60170136 3.10448991 165.29681693 4 167 C3.67 167.66 3.34 168.32 3 169 C-22.05126926 155.14093244 -47.01549891 140.55905795 -67.58740234 120.38183594 C-68.9661994 119.03306453 -70.3676529 117.70757766 -71.76953125 116.3828125 C-77.31643072 111.0438178 -81.95152185 105.55321842 -86 99 C-86.53109375 98.16339844 -87.0621875 97.32679688 -87.609375 96.46484375 C-88.08890625 95.63082031 -88.5684375 94.79679687 -89.0625 93.9375 C-89.69865234 92.83728516 -89.69865234 92.83728516 -90.34765625 91.71484375 C-92.07946744 84.50760555 -87.96887717 77.04249095 -84.875 70.6875 C-84.47539062 69.85863281 -84.07578125 69.02976562 -83.6640625 68.17578125 C-68.07665814 36.50770024 -40.5715087 13.22962386 -7.45703125 1.72509766 C-2.30966034 0 -2.30966034 0 0 0 Z " fill="#000000" transform="translate(215,123)"/>
<path d="M0 0 C0.66 0 1.32 0 2 0 C3.04198001 1.71334323 4.0062566 3.4740346 4.9375 5.25 C8.70938517 11.90166472 13.28499287 17.15063519 18.62109375 22.59033203 C19.90965181 23.90763625 21.17455448 25.24796413 22.4375 26.58984375 C29.06255885 33.48731456 36.34165973 39.31000623 44 45 C44.97283936 45.72340576 44.97283936 45.72340576 45.96533203 46.46142578 C56.23574962 54.03370399 66.87600643 61.01089268 78.01367188 67.24755859 C80.33905989 68.61214617 82.51828214 70.03043382 84.73632812 71.55322266 C97.71826604 80.0743802 109.41593284 80.38353631 124.625 80.125 C126.90364649 80.12305299 129.1823015 80.12562849 131.4609375 80.1328125 C136.97514385 80.14054372 142.48661846 80.09297488 148 80 C148 80.66 148 81.32 148 82 C145.4701063 83.67294341 142.94840443 85.1952466 140.3125 86.6875 C139.4781543 87.16300293 138.64380859 87.63850586 137.78417969 88.12841797 C108.17183317 104.81794924 76.25898629 122.77321469 41.4375 123.375 C40.61314453 123.41238281 39.78878906 123.44976562 38.93945312 123.48828125 C34.54647992 123.5514895 32.48604056 123.31595519 28.70703125 120.859375 C7.13777322 98.07626263 -3.63114614 66.35095174 -3.39111328 35.40209961 C-3.37499102 32.93612589 -3.39108036 30.47178475 -3.41015625 28.00585938 C-3.42111207 18.26212013 -2.53806854 9.45946047 0 0 Z " fill="#000000" transform="translate(122,217)"/>
<path d="M0 0 C33.5683407 15.51477931 71.24761199 39.92938314 91 72 C91.49628906 72.75023437 91.99257813 73.50046875 92.50390625 74.2734375 C95.27915924 78.90801841 94.96872335 81.61457787 93.74633789 86.54736328 C92.49689693 90.65331157 90.75119346 94.45953201 88.875 98.3125 C88.27341064 99.55797607 88.27341064 99.55797607 87.65966797 100.82861328 C73.15009379 130.26559158 48.1064285 152.38149572 18 164.9375 C16.94075317 165.37968872 16.94075317 165.37968872 15.86010742 165.83081055 C11.91875277 167.41214576 8.24607224 168.47587546 4 169 C5.3414146 165.5308243 6.84643915 162.16337512 8.41088867 158.78979492 C18.27543947 137.15616456 21.61826419 113.60093905 23 90 C23.04844055 89.19452728 23.0968811 88.38905457 23.14678955 87.55917358 C25.70531765 51.32456084 25.70531765 51.32456084 10.80029297 19.38183594 C8.08770055 15.79300334 5.88066138 11.94727627 3.625 8.0625 C2.90958907 6.90709672 2.1935321 5.75209297 1.4765625 4.59765625 C0 2 0 2 0 0 Z " fill="#000000" transform="translate(281,208)"/>
<path d="M0 0 C0.66 0 1.32 0 2 0 C2.43095313 43.87102863 2.43095313 43.87102863 0 61 C-0.12890625 61.92586914 -0.2578125 62.85173828 -0.390625 63.80566406 C-3.26473535 83.70488643 -7.39265508 104.12384554 -19.28125 120.796875 C-22.02752176 122.71926523 -25.0704019 123.14348377 -28.3125 123.6875 C-29.05234131 123.81342529 -29.79218262 123.93935059 -30.55444336 124.0690918 C-63.20154114 129.04173936 -98.08996882 121.19665559 -125.13671875 102.18359375 C-128.5448722 99.5844699 -131.8900991 96.92556067 -135.1875 94.1875 C-135.7532373 93.71908691 -136.31897461 93.25067383 -136.90185547 92.76806641 C-139.49376468 90.55135469 -140.90116497 89.2965051 -142 86 C-140.47246094 85.96132813 -140.47246094 85.96132813 -138.9140625 85.921875 C-102.17377435 84.61694011 -67.25513292 67.31896428 -36.37915039 48.42797852 C-34.6951282 47.41721959 -32.97917761 46.45879866 -31.24389648 45.53881836 C-23.1693127 41.00097284 -19.56382635 35.52991159 -15.3125 27.4375 C-14.67820068 26.2839502 -14.04390137 25.13040039 -13.39038086 23.94189453 C-12.1409494 21.66772763 -10.90170465 19.38792771 -9.67382812 17.10205078 C-7.54159719 13.1504571 -5.31313352 9.25987826 -3.0625 5.375 C-2.04105754 3.58368053 -1.01991787 1.79218796 0 0 Z " fill="#000000" transform="translate(300,257)"/>
<path d="M0 0 C0.81882156 -0.01111313 1.63764313 -0.02222626 2.48127747 -0.03367615 C5.10750963 -0.06055677 7.73301152 -0.06706567 10.359375 -0.06640625 C11.70296585 -0.06800751 11.70296585 -0.06800751 13.07369995 -0.06964111 C26.65124915 -0.04622342 39.22425867 0.73865278 52.109375 5.37109375 C52.79628418 5.60634766 53.48319336 5.84160156 54.19091797 6.08398438 C72.02053675 12.28187915 90.1052217 22.48629801 103.109375 36.37109375 C103.109375 37.03109375 103.109375 37.69109375 103.109375 38.37109375 C101.913125 38.32984375 100.716875 38.28859375 99.484375 38.24609375 C78.65672571 38.4065533 57.88345882 45.80541801 39.109375 54.37109375 C37.83707031 54.9427124 37.83707031 54.9427124 36.5390625 55.52587891 C22.04196665 62.08003246 8.17191484 69.54203357 -5.38232422 77.87597656 C-7.890625 79.37109375 -7.890625 79.37109375 -10.07470703 80.42089844 C-17.25349236 84.07053632 -20.24979743 91.04809755 -23.890625 97.87109375 C-24.88721229 99.69589958 -25.88950015 101.51748827 -26.89233398 103.33886719 C-27.55515201 104.54292988 -28.21613881 105.74800254 -28.87524414 106.95410156 C-32.3151468 113.22021534 -35.90608782 119.43403399 -39.890625 125.37109375 C-40.220625 125.37109375 -40.550625 125.37109375 -40.890625 125.37109375 C-41.31572113 82.30885542 -41.31572113 82.30885542 -38.890625 63.37109375 C-38.79410645 62.56446289 -38.69758789 61.75783203 -38.59814453 60.92675781 C-36.31971273 42.36258931 -32.19371629 15.85548958 -17.890625 2.37109375 C-12.08289072 0.40284653 -6.08245493 0.04466097 0 0 Z " fill="#000000" transform="translate(238.890625,118.62890625)"/>
<path d="M0 0 C1.65 0 3.3 0 5 0 C5 17.49 5 34.98 5 53 C23.15 53 41.3 53 60 53 C60.66 54.32 61.32 55.64 62 57 C61.505 57.99 61.505 57.99 61 59 C40.87 59 20.74 59 0 59 C-1.28044499 56.43911003 -1.12703471 54.62289351 -1.12939453 51.75585938 C-1.13254669 50.66132446 -1.13569885 49.56678955 -1.13894653 48.43908691 C-1.1369223 47.25262573 -1.13489807 46.06616455 -1.1328125 44.84375 C-1.13376923 43.63054077 -1.13472595 42.41733154 -1.13571167 41.1673584 C-1.13639317 38.59838815 -1.13454097 36.02941618 -1.13037109 33.46044922 C-1.12502246 29.51656241 -1.13031714 25.57278949 -1.13671875 21.62890625 C-1.13605796 19.13802058 -1.13477679 16.64713498 -1.1328125 14.15625 C-1.13483673 12.96978882 -1.13686096 11.78332764 -1.13894653 10.56091309 C-1.13579437 9.46637817 -1.13264221 8.37184326 -1.12939453 7.24414062 C-1.12859894 6.27754517 -1.12780334 5.31094971 -1.12698364 4.31506348 C-1 2 -1 2 0 0 Z " fill="#000000" transform="translate(50,390)"/>
<path d="M0 0 C7.80575195 -0.02312792 15.61149595 -0.04091738 23.41727352 -0.05181217 C27.0414596 -0.05704002 30.6656223 -0.06413587 34.28979492 -0.07543945 C37.78459975 -0.08627184 41.27938204 -0.09227758 44.77420235 -0.09487724 C46.76239389 -0.09763551 48.75057631 -0.10544688 50.73875427 -0.11329651 C51.93992386 -0.11337204 53.14109344 -0.11344757 54.37866211 -0.11352539 C55.97417152 -0.11685631 55.97417152 -0.11685631 57.60191345 -0.12025452 C60 0 60 0 61 1 C61.09893778 2.77446009 61.12799092 4.55286251 61.12939453 6.33007812 C61.13254669 7.46795776 61.13569885 8.6058374 61.13894653 9.77819824 C61.1369223 11.01670532 61.13489807 12.2552124 61.1328125 13.53125 C61.13376923 14.79263794 61.13472595 16.05402588 61.13571167 17.3536377 C61.13639375 20.02697138 61.13503529 22.70021437 61.13037109 25.37353516 C61.12467381 28.80706691 61.12795301 32.2405205 61.13394356 35.67404938 C61.13841762 38.93895243 61.13528883 42.20384593 61.1328125 45.46875 C61.13483673 46.70725708 61.13686096 47.94576416 61.13894653 49.22180176 C61.13421829 50.92862122 61.13421829 50.92862122 61.12939453 52.66992188 C61.12859894 53.67728394 61.12780334 54.684646 61.12698364 55.72253418 C61 58 61 58 60 59 C58.35 59 56.7 59 55 59 C55 41.51 55 24.02 55 6 C51.12507813 6.01160156 47.25015625 6.02320313 43.2578125 6.03515625 C39.51806724 6.04294787 35.77832287 6.04902404 32.03857422 6.05493164 C29.43310137 6.0599703 26.82763137 6.0668013 24.22216797 6.07543945 C20.48404236 6.08752544 16.74595403 6.09323288 13.0078125 6.09765625 C11.83695099 6.10281754 10.66608948 6.10797882 9.45974731 6.11329651 C8.37877777 6.11337204 7.29780823 6.11344757 6.18408203 6.11352539 C4.75178757 6.11685631 4.75178757 6.11685631 3.29055786 6.12025452 C1 6 1 6 -1 5 C-0.67 3.35 -0.34 1.7 0 0 Z " fill="#010101" transform="translate(391,51)"/>
<path d="M0 0 C1.65 0 3.3 0 5 0 C6.74299388 1.74299388 6.12758682 4.14406252 6.12939453 6.51367188 C6.13254669 7.69159302 6.13569885 8.86951416 6.13894653 10.08312988 C6.1369223 11.36538452 6.13489807 12.64763916 6.1328125 13.96875 C6.13376923 15.27453003 6.13472595 16.58031006 6.13571167 17.92565918 C6.13718833 20.69312722 6.13503511 23.46056304 6.13037109 26.22802734 C6.12467381 29.78262649 6.12795298 33.33715014 6.13394356 36.89174652 C6.13841747 40.27158714 6.13528886 43.65140723 6.1328125 47.03125 C6.13483673 48.31350464 6.13686096 49.59575928 6.13894653 50.91687012 C6.13421829 52.68375183 6.13421829 52.68375183 6.12939453 54.48632812 C6.12859894 55.52921997 6.12780334 56.57211182 6.12698364 57.64660645 C6 60 6 60 5 61 C3.18944975 61.09376053 1.37522799 61.1174411 -0.43774414 61.11352539 C-2.17943626 61.11341209 -2.17943626 61.11341209 -3.95631409 61.11329651 C-5.85159096 61.10555458 -5.85159096 61.10555458 -7.78515625 61.09765625 C-9.07111191 61.0962413 -10.35706757 61.09482635 -11.68199158 61.09336853 C-15.10643443 61.08954418 -18.53083509 61.07971462 -21.95526123 61.06866455 C-25.44738189 61.05844864 -28.93950934 61.05387053 -32.43164062 61.04882812 C-39.28777778 61.03809227 -46.14388687 61.02101684 -53 61 C-53.5625 59.0625 -53.5625 59.0625 -54 57 C-53 56 -53 56 -50.86766052 55.87974548 C-49.45868248 55.8830764 -49.45868248 55.8830764 -48.02124023 55.88647461 C-46.40735413 55.88665588 -46.40735413 55.88665588 -44.76086426 55.88684082 C-43.05199036 55.89451477 -43.05199036 55.89451477 -41.30859375 55.90234375 C-39.74727722 55.90385437 -39.74727722 55.90385437 -38.15441895 55.90539551 C-34.24876816 55.91064599 -30.34313303 55.92460711 -26.4375 55.9375 C-13.3509375 55.9684375 -13.3509375 55.9684375 0 56 C0 37.52 0 19.04 0 0 Z " fill="#000000" transform="translate(446,389)"/>
<path d="M0 0 C19.14 0 38.28 0 58 0 C58.495 1.98 58.495 1.98 59 4 C58 5 58 5 55.86766052 5.12025452 C54.92834183 5.11803391 53.98902313 5.11581329 53.02124023 5.11352539 C51.94531616 5.11340454 50.86939209 5.11328369 49.76086426 5.11315918 C48.05199036 5.10548523 48.05199036 5.10548523 46.30859375 5.09765625 C44.74727722 5.09614563 44.74727722 5.09614563 43.15441895 5.09460449 C39.24876816 5.08935401 35.34313303 5.07539289 31.4375 5.0625 C22.713125 5.041875 13.98875 5.02125 5 5 C5 23.48 5 41.96 5 61 C3.35 61 1.7 61 0 61 C-0.9134805 57.88351783 -1.1265276 55.09428696 -1.12939453 51.85180664 C-1.13254669 50.82716812 -1.13569885 49.8025296 -1.13894653 48.74684143 C-1.1369223 47.64573532 -1.13489807 46.54462921 -1.1328125 45.41015625 C-1.13376923 44.27348007 -1.13472595 43.13680389 -1.13571167 41.96568298 C-1.13639199 39.56248926 -1.13454804 37.1592937 -1.13037109 34.75610352 C-1.12502574 31.08019879 -1.1303186 27.40441652 -1.13671875 23.72851562 C-1.13605785 21.3932289 -1.13477643 19.05794225 -1.1328125 16.72265625 C-1.13483673 15.62357437 -1.13686096 14.52449249 -1.13894653 13.3921051 C-1.13579437 12.36431442 -1.13264221 11.33652374 -1.12939453 10.27758789 C-1.12859894 9.37698135 -1.12780334 8.47637482 -1.12698364 7.54847717 C-1 5 -1 5 0 0 Z " fill="#000000" transform="translate(50,50)"/>
</svg>
